<svg width="400" height="270" viewBox="0 0 400 270" fill="none" xmlns="http://www.w3.org/2000/svg">
<g opacity="0.2">
<path d="M184.306 80.0217C187.834 80.0217 190.687 77.1693 190.687 73.6413V54.5002C190.687 50.9723 187.834 48.1199 184.306 48.1199C180.778 48.1199 177.926 50.9723 177.926 54.5002V73.6413C177.926 77.1693 180.778 80.0217 184.306 80.0217Z" fill="#009944"/>
<path d="M220.487 48.1199C220.487 44.592 217.634 41.7396 214.106 41.7396C210.578 41.7396 207.726 44.592 207.726 48.1199V73.6414C207.726 86.5522 197.217 97.0611 184.306 97.0611C171.396 97.0611 160.887 86.5522 160.887 73.6414V48.1199C160.887 44.592 158.034 41.7396 154.506 41.7396C150.978 41.7396 148.126 44.592 148.126 48.1199V73.6414C148.126 93.6082 164.34 109.822 184.306 109.822C204.273 109.822 220.487 93.6082 220.487 73.6414V48.1199Z" fill="#009944"/>
<path d="M277.91 41.7395H263.048C251.863 41.7395 242.856 50.8221 242.856 61.9315V73.6413C242.856 105.993 216.659 132.191 184.306 132.191C151.954 132.191 125.757 105.993 125.757 73.6413V59.1541C129.585 56.9773 132.138 52.8488 132.138 48.1199C132.138 41.0639 126.433 35.3591 119.377 35.3591C112.321 35.3591 106.616 41.0639 106.616 48.1199C106.616 52.8488 109.168 56.9773 112.996 59.1541V73.6413C112.996 112.974 144.898 144.951 184.306 144.951C223.639 144.951 255.616 113.049 255.616 73.6413V61.9315C255.616 57.803 258.919 54.5002 263.048 54.5002H277.91C281.438 54.5002 284.29 51.6478 284.29 48.1199C284.29 44.5919 281.438 41.7395 277.91 41.7395ZM119.377 43.8413C121.704 43.8413 123.655 45.7178 123.655 48.1199C123.655 50.4468 121.779 52.3985 119.377 52.3985C117.05 52.3985 115.098 50.5219 115.098 48.1199C115.098 45.7929 117.05 43.8413 119.377 43.8413Z" fill="#00377E"/>
<path d="M197.743 180.456C197.818 180.306 197.968 180.231 198.043 180.081C198.118 179.931 198.193 179.856 198.343 179.705C198.643 179.33 198.944 178.955 199.169 178.504C199.244 178.354 199.319 178.279 199.394 178.129C199.394 178.129 199.394 178.054 199.469 178.054C199.544 177.904 199.619 177.829 199.694 177.679C199.694 177.679 199.694 177.604 199.769 177.604C199.844 177.454 199.919 177.378 199.995 177.228C200.145 176.928 200.295 176.628 200.445 176.328V176.253C200.52 176.102 200.52 176.027 200.595 175.877C200.595 175.877 200.595 175.802 200.67 175.727C200.745 175.652 200.745 175.502 200.82 175.427C200.82 175.352 200.82 175.352 200.895 175.277C200.97 175.127 200.97 175.052 201.045 174.901V174.826C201.121 174.526 201.271 174.226 201.346 173.926C201.346 173.851 201.346 173.851 201.346 173.775C201.346 173.7 201.421 173.55 201.421 173.475C201.421 173.4 201.421 173.4 201.421 173.325C201.421 173.25 201.496 173.1 201.496 173.025C201.496 172.95 201.496 172.95 201.496 172.875C201.496 172.8 201.571 172.65 201.571 172.574C201.571 172.499 201.571 172.499 201.571 172.424C201.571 172.274 201.646 172.124 201.646 171.974C201.646 171.824 201.721 171.674 201.721 171.524C201.721 171.448 201.721 171.448 201.721 171.373C201.721 171.298 201.721 171.148 201.721 171.073C201.721 170.998 201.721 170.923 201.721 170.923C201.721 170.848 201.721 170.698 201.721 170.623C201.721 170.548 201.721 170.473 201.721 170.473C201.721 170.398 201.721 170.247 201.721 170.172C201.721 170.097 201.721 170.097 201.721 170.022C201.721 169.872 201.721 169.722 201.721 169.572C201.721 169.497 201.721 169.347 201.721 169.272C200.82 167.77 199.844 166.419 198.643 165.143C198.343 165.368 197.893 165.519 197.442 165.519C196.692 167.395 195.716 169.122 194.59 170.773C194.89 171.148 195.115 171.599 195.115 172.124C195.115 172.8 194.74 173.4 194.215 173.775C194.815 176.027 195.115 178.429 195.04 180.831C195.04 181.657 194.965 182.483 194.815 183.308C195.341 182.933 195.866 182.483 196.316 182.032C196.467 181.957 196.542 181.807 196.692 181.732C197.067 181.207 197.442 180.831 197.743 180.456Z" fill="#00377E"/>
<path d="M198.643 161.69C199.169 162.066 199.544 162.666 199.544 163.342C199.544 163.642 199.469 163.942 199.394 164.167C200.22 165.068 200.97 165.969 201.721 166.945C201.571 165.819 201.271 164.768 200.895 163.717C200.82 163.567 200.82 163.417 200.745 163.267C200.445 162.366 199.995 161.54 199.544 160.714C199.469 160.564 199.394 160.489 199.319 160.339C199.244 160.189 199.169 160.114 199.094 159.964C198.944 160.564 198.794 161.165 198.643 161.69Z" fill="#00377E"/>
<path d="M182.355 181.582L182.28 181.507C181.979 181.657 181.679 181.732 181.304 181.732C180.553 181.732 179.953 181.357 179.577 180.756C177.851 181.132 176.049 181.357 174.248 181.432C174.173 181.732 173.948 181.957 173.722 182.183C173.798 182.333 173.798 182.408 173.873 182.558C173.948 182.633 174.023 182.708 174.098 182.708L174.173 182.783C174.248 182.858 174.323 182.858 174.398 182.933L174.473 183.008C174.548 183.083 174.623 183.083 174.698 183.158L174.773 183.233C174.848 183.308 174.923 183.308 174.999 183.384L175.074 183.459C175.149 183.534 175.224 183.534 175.299 183.609L175.374 183.684C175.449 183.759 175.524 183.759 175.599 183.834C175.599 183.834 175.599 183.834 175.674 183.834C175.899 183.984 176.2 184.134 176.5 184.284L176.575 184.359C176.65 184.359 176.725 184.434 176.8 184.434C176.875 184.434 176.875 184.51 176.95 184.51C177.025 184.51 177.1 184.585 177.175 184.585C177.25 184.585 177.25 184.66 177.325 184.66C177.401 184.66 177.476 184.735 177.551 184.735C177.626 184.735 177.626 184.81 177.701 184.81C177.776 184.81 177.851 184.885 177.926 184.885C178.001 184.885 178.001 184.96 178.076 184.96C178.151 184.96 178.226 185.035 178.301 185.035C178.376 185.035 178.376 185.11 178.451 185.11C178.527 185.11 178.602 185.185 178.677 185.185C178.752 185.26 178.902 185.26 178.977 185.335C179.052 185.335 179.127 185.41 179.127 185.41C179.202 185.41 179.277 185.485 179.352 185.485C179.427 185.485 179.502 185.56 179.502 185.56C179.577 185.56 179.652 185.635 179.728 185.635C179.803 185.635 179.878 185.711 179.878 185.711C179.953 185.711 180.028 185.786 180.103 185.786C180.178 185.786 180.253 185.786 180.253 185.861C180.328 185.861 180.403 185.861 180.478 185.936C180.553 185.936 180.628 185.936 180.628 186.011C180.703 186.011 180.778 186.011 180.853 186.086C180.929 186.086 181.004 186.086 181.004 186.161C181.079 186.161 181.154 186.161 181.229 186.236C181.304 186.236 181.304 186.236 181.379 186.236C181.529 186.236 181.604 186.311 181.754 186.311H181.829C181.904 186.311 182.054 186.311 182.13 186.386C182.205 186.386 182.205 186.386 182.28 186.386C182.355 186.386 182.43 186.386 182.505 186.386C182.58 186.386 182.58 186.386 182.655 186.386C182.73 186.386 182.805 186.386 182.88 186.386C182.955 186.386 183.03 186.386 183.03 186.386C183.105 186.386 183.18 186.386 183.255 186.386C183.331 186.386 183.406 186.386 183.406 186.386C183.481 186.386 183.556 186.386 183.631 186.386C183.706 186.386 183.706 186.386 183.781 186.386C183.856 186.386 183.931 186.386 184.081 186.386C184.156 186.386 184.156 186.386 184.231 186.386C184.381 186.386 184.532 186.386 184.682 186.386C184.832 186.386 184.982 186.386 185.132 186.386C185.207 186.386 185.282 186.386 185.357 186.386C185.432 186.386 185.507 186.386 185.507 186.386C185.658 186.386 185.733 186.386 185.883 186.386H185.958C186.108 186.386 186.183 186.386 186.333 186.386C186.934 186.311 187.459 186.236 187.984 186.161C186.033 184.885 184.081 183.384 182.355 181.582Z" fill="#00377E"/>
<path d="M179.878 178.354C177.175 174.301 175.824 169.497 175.974 164.543C176.049 162.891 176.275 161.165 176.65 159.588C173.873 163.191 172.146 167.695 171.996 172.574C171.921 174.676 172.146 176.778 172.597 178.729C173.497 178.88 174.173 179.555 174.323 180.381C176.049 180.381 177.701 180.156 179.277 179.78V179.705C179.352 179.18 179.502 178.729 179.878 178.354Z" fill="#00377E"/>
<path d="M171.696 178.805C171.245 176.778 171.02 174.676 171.095 172.499C171.245 167.395 173.122 162.516 176.275 158.538C176.275 158.463 176.2 158.463 176.2 158.387C174.023 158.988 171.921 159.889 170.044 161.015C169.669 161.615 169.369 162.291 169.144 162.891C168.918 163.342 168.768 163.867 168.618 164.392V164.468C168.543 164.618 168.543 164.768 168.468 164.918V164.993C168.393 165.293 168.318 165.669 168.243 165.969V166.044C168.243 166.194 168.168 166.344 168.168 166.419C168.168 166.494 168.168 166.494 168.168 166.569C168.168 166.719 168.093 166.87 168.093 167.02V167.095C168.093 167.245 168.018 167.47 168.018 167.62V167.695C168.018 167.845 168.018 167.996 168.018 168.071C168.018 168.146 168.018 168.146 168.018 168.221C168.018 168.371 168.018 168.446 168.018 168.596C168.018 168.671 168.018 168.671 168.018 168.746C168.018 168.896 168.018 169.121 168.018 169.272C168.018 169.497 168.018 169.647 168.018 169.872C168.018 169.947 168.018 169.947 168.018 170.022C168.018 170.247 168.018 170.398 168.018 170.623V170.698C168.018 170.848 168.018 171.073 168.093 171.223C168.093 171.298 168.093 171.298 168.093 171.373C168.093 171.599 168.168 171.749 168.168 171.974V172.049C168.168 172.199 168.243 172.424 168.243 172.574V172.649C168.318 172.875 168.318 173.025 168.393 173.25C168.393 173.325 168.393 173.325 168.393 173.4C168.468 173.775 168.618 174.151 168.693 174.526V174.601C168.768 174.826 168.843 174.976 168.918 175.202C168.993 175.352 169.069 175.577 169.144 175.727V175.802C169.219 175.952 169.294 176.177 169.369 176.328V176.403C169.444 176.553 169.519 176.778 169.594 176.928C169.669 177.078 169.744 177.303 169.894 177.453C169.894 177.453 169.894 177.529 169.969 177.529C170.194 177.904 170.345 178.204 170.57 178.579C170.57 178.579 170.57 178.654 170.645 178.654C170.72 178.805 170.87 178.955 171.02 179.18C171.17 179.105 171.395 178.955 171.696 178.805Z" fill="#00377E"/>
<path d="M194.14 180.606C194.215 178.354 193.99 176.102 193.389 173.926C193.314 173.926 193.314 173.926 193.239 173.926C192.864 173.926 192.488 173.775 192.188 173.625C191.963 173.85 191.813 174.001 191.587 174.226C189.185 176.553 186.408 178.354 183.406 179.555C183.406 179.63 183.406 179.63 183.406 179.705C183.406 180.081 183.255 180.456 183.105 180.831L183.18 180.906C185.057 182.933 187.309 184.584 189.711 185.785C190.236 185.635 190.762 185.41 191.287 185.185C191.813 184.96 192.338 184.735 192.789 184.434C193.089 184.284 193.464 184.059 193.764 183.909C193.99 182.858 194.065 181.732 194.14 180.606Z" fill="#00377E"/>
<path d="M175.749 157.487C174.848 157.337 173.948 157.187 172.972 157.112C172.672 157.412 172.296 157.787 171.996 158.087C171.846 158.238 171.696 158.463 171.546 158.613C171.546 158.613 171.546 158.613 171.546 158.688C171.396 158.838 171.245 159.063 171.095 159.213C172.597 158.538 174.173 157.937 175.749 157.487Z" fill="#00377E"/>
<path d="M195.566 163.342C195.566 162.966 195.641 162.591 195.866 162.291C192.864 160.039 189.261 158.463 185.282 157.862C184.156 157.712 183.03 157.637 181.904 157.637C181.304 157.637 180.703 157.637 180.103 157.712C183.331 158.988 186.258 161.015 188.735 163.567C190.537 165.443 191.963 167.62 193.014 169.872C193.089 169.872 193.164 169.872 193.239 169.872C193.464 169.872 193.689 169.947 193.914 170.022C194.965 168.521 195.941 166.87 196.617 165.068C195.941 164.768 195.566 164.092 195.566 163.342Z" fill="#00377E"/>
<path d="M179.577 156.436C179.652 156.586 179.728 156.661 179.803 156.811C180.478 156.736 181.229 156.736 181.904 156.736C183.105 156.736 184.231 156.811 185.432 156.961C189.636 157.562 193.389 159.213 196.542 161.615C196.842 161.465 197.217 161.315 197.517 161.315C197.593 161.315 197.668 161.315 197.743 161.315C197.893 160.489 198.043 159.664 198.193 158.838C198.118 158.763 198.043 158.613 197.893 158.538C197.818 158.463 197.743 158.312 197.668 158.237C197.668 158.237 197.668 158.237 197.593 158.162C197.517 158.087 197.442 158.012 197.367 157.937L197.292 157.862C197.217 157.787 197.142 157.712 197.067 157.637L196.992 157.562C196.917 157.487 196.842 157.412 196.767 157.337L196.692 157.262C196.617 157.186 196.542 157.111 196.467 157.036L196.392 156.961C196.316 156.886 196.241 156.811 196.166 156.736L196.091 156.661C196.016 156.586 195.941 156.511 195.866 156.436C195.866 156.436 195.791 156.436 195.791 156.361C195.716 156.286 195.566 156.211 195.491 156.136C195.491 156.136 195.491 156.136 195.416 156.061C195.341 155.985 195.191 155.91 195.115 155.835C194.44 155.31 193.689 154.86 192.939 154.409C192.788 154.334 192.713 154.259 192.563 154.184C192.413 154.109 192.338 154.034 192.188 154.034C192.188 154.034 192.188 154.034 192.113 154.034C191.963 153.959 191.888 153.959 191.738 153.884C191.738 153.884 191.738 153.884 191.663 153.884C191.512 153.809 191.437 153.809 191.287 153.734C191.287 153.734 191.287 153.734 191.212 153.734C191.062 153.659 190.987 153.659 190.837 153.583C190.837 153.583 190.837 153.583 190.762 153.583C190.612 153.508 190.537 153.508 190.386 153.433C190.236 153.358 190.086 153.358 190.011 153.283C188.735 152.908 187.384 152.608 186.033 152.533C183.631 153.433 181.454 154.784 179.577 156.436Z" fill="#00377E"/>
<path d="M176.2 156.586C176.575 155.986 177.175 155.535 177.926 155.535C178.001 155.535 178.001 155.535 178.076 155.535C178.451 154.785 178.827 154.034 179.277 153.283C178.527 153.509 177.851 153.809 177.175 154.184C176.95 154.259 176.725 154.409 176.575 154.484C176.575 154.484 176.575 154.484 176.5 154.484C176.275 154.634 176.125 154.71 175.899 154.86C175.899 154.86 175.899 154.86 175.824 154.86C175.599 155.01 175.449 155.085 175.224 155.235C174.848 155.535 174.398 155.835 174.023 156.136C174.773 156.361 175.449 156.436 176.2 156.586Z" fill="#00377E"/>
<path d="M192.038 170.322C191.062 168.146 189.636 166.119 187.984 164.317C185.582 161.765 182.73 159.889 179.652 158.613C179.277 159.138 178.677 159.513 178.001 159.513C177.926 159.513 177.851 159.513 177.776 159.513C177.326 161.09 177.1 162.816 177.025 164.543C176.875 169.272 178.151 173.85 180.703 177.754C180.929 177.679 181.154 177.604 181.379 177.604C182.13 177.604 182.73 177.979 183.105 178.504C186.333 177.228 189.185 175.277 191.512 172.799C191.362 172.499 191.212 172.199 191.212 171.824C191.212 171.298 191.512 170.698 192.038 170.322Z" fill="#00377E"/>
<path d="M180.703 152.908C180.178 153.734 179.652 154.634 179.202 155.535C180.628 154.334 182.13 153.283 183.706 152.458C182.655 152.458 181.679 152.683 180.703 152.908Z" fill="#00377E"/>
<path d="M179.202 155.535C179.127 155.685 179.127 155.76 179.052 155.91C179.277 156.061 179.502 156.286 179.652 156.511C181.529 154.86 183.706 153.508 186.033 152.533C185.883 152.533 185.657 152.533 185.507 152.533H185.432C185.282 152.533 185.057 152.533 184.907 152.533C184.757 152.533 184.532 152.533 184.381 152.533C184.381 152.533 184.381 152.533 184.306 152.533C184.156 152.533 183.931 152.533 183.781 152.533C182.13 153.283 180.553 154.334 179.202 155.535Z" fill="#00377E"/>
</g>
<g style="mix-blend-mode:darken" filter="url(#filter0_b)">
<path d="M64.7656 216.016V215.438C64.6927 213.615 64.5625 212.198 64.375 211.188C65.3854 211.302 66.1875 211.365 66.7812 211.375C69.6354 211.323 72.1823 210.75 74.4219 209.656L75.7969 211.531C76.0052 211.833 76.1094 212.083 76.1094 212.281C76.1094 212.396 76.0625 212.505 75.9688 212.609C75.875 212.703 75.7448 212.75 75.5781 212.75C75.3906 212.75 75.125 212.708 74.7812 212.625C74.6979 212.594 74.5885 212.578 74.4531 212.578C74.1302 212.578 73.6094 212.656 72.8906 212.812C71.4427 213.104 69.6615 213.339 67.5469 213.516V216.281H73.5625C74.0833 216.292 75.0521 216.203 76.4688 216.016V218.672C75.3646 218.536 74.3958 218.474 73.5625 218.484H73.2188V224.344C73.2188 225.062 73.3021 226.01 73.4688 227.188H70.2344C70.3906 225.969 70.4792 225.021 70.5 224.344V218.484H67.5469C67.474 222.203 66.6198 225.146 64.9844 227.312C64.151 226.74 63.1719 226.312 62.0469 226.031C62.4635 225.656 62.7917 225.307 63.0312 224.984C61.9062 224.839 61.0312 224.76 60.4062 224.75H57.5625C57.5833 225.479 57.6562 226.375 57.7812 227.438H54.6875C54.8125 226.188 54.8854 225.292 54.9062 224.75H51.7344C51.0573 224.75 50.0469 224.839 48.7031 225.016V222.516C50.1615 222.682 51.1719 222.766 51.7344 222.766H54.9062V221.688H53.1875C52.8021 221.688 51.9427 221.745 50.6094 221.859C50.2448 221.891 49.9688 221.917 49.7812 221.938C49.9583 220.844 50.0469 219.917 50.0469 219.156V217.688C50.0365 217 49.9479 215.974 49.7812 214.609C51.0938 214.776 52.25 214.859 53.25 214.859H54.9062V213.781H51.5469C50.7344 213.792 49.724 213.875 48.5156 214.031V211.609C49.7865 211.766 50.7969 211.849 51.5469 211.859H54.9062C54.8854 211.38 54.8021 210.536 54.6562 209.328L57.6875 209.688C58.2083 209.75 58.4844 209.839 58.5156 209.953C58.5573 210.068 58.5781 210.146 58.5781 210.188C58.5781 210.365 58.401 210.557 58.0469 210.766C57.6927 210.922 57.5312 211.286 57.5625 211.859H60.7969C61.5885 211.859 62.5885 211.776 63.7969 211.609V214.031C62.4844 213.875 61.4844 213.792 60.7969 213.781H57.5625V214.859H59.5156C60.3281 214.859 61.4271 214.776 62.8125 214.609C62.6562 215.766 62.5729 216.781 62.5625 217.656V219.25C62.5625 220 62.6458 220.896 62.8125 221.938C61.4792 221.771 60.4219 221.688 59.6406 221.688H57.5625V222.766H60.4062C61.3021 222.755 62.3073 222.672 63.4219 222.516V224.406C64.349 222.906 64.7969 220.109 64.7656 216.016ZM54.7812 238.797H51.5156C51.6719 237.568 51.7552 236.599 51.7656 235.891V231.156C51.7552 230.344 51.6719 229.255 51.5156 227.891C52.8906 228.047 54 228.13 54.8438 228.141H70.7188C71.2708 228.151 72.3802 228.068 74.0469 227.891C73.8698 229.297 73.7812 230.385 73.7812 231.156V235.641C73.7708 236.297 73.8594 237.318 74.0469 238.703H70.7188C70.7917 238.401 70.8646 238.12 70.9375 237.859C70.9688 237.745 70.9896 237.667 71 237.625H54.5312L54.7812 238.797ZM71 233.969H54.5312V235.438H71V233.969ZM54.5312 230.328V231.828H71V230.328H54.5312ZM60.0938 216.531H57.5625V217.516H60.0938V216.531ZM60.0938 219.031H57.5625V220.016H60.0938V219.031ZM52.4375 219.031V220.016H54.9062V219.031H52.4375ZM52.4375 216.531V217.516H54.9062V216.531H52.4375ZM83.5781 227.062H87.3281V222.516H87.125C86.9479 222.484 86.2344 222.589 84.9844 222.828V219.859C85.651 219.995 86.1146 220.078 86.375 220.109C86.6562 220.151 86.9323 220.172 87.2031 220.172H87.3281V216.203C86.2344 217.578 84.8906 219.083 83.2969 220.719C82.349 219.885 81.3438 219.323 80.2812 219.031C83.9896 216.167 86.6771 212.88 88.3438 209.172L91.0625 210.094C91.625 210.281 91.9062 210.5 91.9062 210.75C91.8854 211 91.5938 211.229 91.0312 211.438C90.7812 211.521 90.526 211.745 90.2656 212.109L89.3125 213.453H104.703C105.089 213.474 105.875 213.38 107.062 213.172V216.109C106.271 215.964 105.76 215.88 105.531 215.859C105.26 215.818 105.005 215.797 104.766 215.797H103.484V220.172H104.469C104.896 220.193 105.667 220.089 106.781 219.859V222.828C105.531 222.599 104.75 222.495 104.438 222.516H103.484V227.062H106.359C106.786 227.083 107.526 226.974 108.578 226.734V229.719C108.057 229.615 107.661 229.542 107.391 229.5C107.141 229.469 106.896 229.453 106.656 229.453H83.4219C82.974 229.432 82.2812 229.51 81.3438 229.688V226.766C82.0417 226.891 82.5156 226.969 82.7656 227C83.0469 227.042 83.3177 227.062 83.5781 227.062ZM89.9219 222.516V227.062H91.875V222.516H89.9219ZM94.4531 222.516V227.062H96.375V222.516H94.4531ZM98.9688 222.516V227.062H100.922V222.516H98.9688ZM94.4531 215.797V220.172H96.375V215.797H94.4531ZM100.922 215.797H98.9688V220.172H100.922V215.797ZM89.9219 215.797V220.172H91.875V215.797H89.9219ZM85.5312 230.219L87.9375 231.25C88.4375 231.479 88.6979 231.714 88.7188 231.953C88.7396 232.193 88.5104 232.417 88.0312 232.625C87.8229 232.698 87.5781 233.021 87.2969 233.594C86.3385 235.427 85.1979 237.208 83.875 238.938L81.2188 237.016C83.1979 235.182 84.6354 232.917 85.5312 230.219ZM101.078 231.797L103.391 230.219C105.411 232.792 107.021 234.948 108.219 236.688L105.688 238.453C104.208 235.932 102.672 233.714 101.078 231.797ZM92.375 231.5C93.1146 233.76 93.6406 235.724 93.9531 237.391L91 238.266C90.7188 236.13 90.2917 234.109 89.7188 232.203L92.375 231.5ZM100.062 236.922L97.3438 237.844C96.75 235.99 96.0365 233.984 95.2031 231.828L98.0156 231.188C98.6406 232.823 99.3229 234.734 100.062 236.922ZM117.188 239H114.047C114.182 237.406 114.255 236.359 114.266 235.859V212.844C114.245 212.25 114.172 211.208 114.047 209.719C115.443 209.854 116.573 209.938 117.438 209.969H135.969C136.76 209.938 137.88 209.854 139.328 209.719C139.203 210.833 139.125 211.854 139.094 212.781V235.25C139.115 236.062 139.193 237.099 139.328 238.359H136.156C136.271 237.797 136.354 237.208 136.406 236.594H116.953C117.016 237.542 117.094 238.344 117.188 239ZM116.953 234.516H136.406V212.078H116.953V234.516ZM130.656 218.703H127.734V219.797H132.953C133.932 219.797 134.896 219.708 135.844 219.531V221.969C134.802 221.802 133.839 221.719 132.953 221.719H127.734V222.859H131.484C132.193 222.849 133.12 222.734 134.266 222.516C134.068 223.599 133.964 224.568 133.953 225.422V230.578C133.974 231.484 134.089 232.432 134.297 233.422C133.068 233.203 132.078 233.089 131.328 233.078H121.781C120.948 233.099 120.021 233.214 119 233.422C119.25 232.38 119.37 231.526 119.359 230.859V225.234C119.359 224.464 119.25 223.557 119.031 222.516C120.115 222.734 121.021 222.849 121.75 222.859H125.312V221.719H120.219C119.521 221.719 118.625 221.802 117.531 221.969V219.531C118.49 219.708 119.385 219.797 120.219 219.797H125.312V218.703H122.75C121.979 218.714 121.062 218.823 120 219.031C120.219 217.844 120.323 217.021 120.312 216.562V215.672C120.323 215.224 120.219 214.401 120 213.203C121.177 213.391 122.094 213.495 122.75 213.516H130.531C131.219 213.516 132.094 213.411 133.156 213.203C132.958 214.161 132.849 214.984 132.828 215.672V216.781C132.818 217.365 132.927 218.115 133.156 219.031C132.146 218.812 131.312 218.703 130.656 218.703ZM121.656 231.219H131.641V224.719H121.656V231.219ZM122.844 228.047V227.562C122.844 227.083 122.75 226.37 122.562 225.422C123.594 225.599 124.411 225.698 125.016 225.719H128.312C128.948 225.708 129.781 225.609 130.812 225.422C130.625 226.224 130.531 226.938 130.531 227.562V228.141C130.531 228.755 130.625 229.536 130.812 230.484C129.615 230.286 128.74 230.188 128.188 230.188H125.078C124.286 230.188 123.448 230.286 122.562 230.484C122.729 229.589 122.823 228.776 122.844 228.047ZM130.328 216.844V215.438H122.75V216.844H130.328ZM125.016 228.469H128.281V227.438H125.016V228.469ZM144.516 236.359C147.161 234.464 148.802 232.438 149.438 230.281C150.219 228.208 150.594 224.312 150.562 218.594V215.516C150.583 213.693 150.474 211.969 150.234 210.344L153.719 210.922C154.115 210.995 154.328 211.141 154.359 211.359C154.391 211.578 154.234 211.844 153.891 212.156C153.599 212.375 153.458 212.953 153.469 213.891V217.312H160.469V213.672C160.469 212.193 160.385 210.74 160.219 209.312L163.703 209.734C164.099 209.786 164.328 209.943 164.391 210.203C164.432 210.453 164.281 210.714 163.938 210.984C163.552 211.203 163.37 211.885 163.391 213.031V217.312H166.562C168.073 217.302 169.5 217.219 170.844 217.062V220C169.469 219.833 168.042 219.74 166.562 219.719H153.469C153.469 219.917 153.469 220.198 153.469 220.562C153.479 221.812 153.458 223.078 153.406 224.359H160.953C162.599 224.349 164.135 224.25 165.562 224.062C165.406 225.146 165.323 226.469 165.312 228.031V233.5C165.323 235.302 165.396 236.828 165.531 238.078H162.141C162.307 236.943 162.391 235.417 162.391 233.5V226.75H153.25C153.021 230.635 151.047 234.391 147.328 238.016C146.578 237.464 145.641 236.911 144.516 236.359ZM200.797 235.25L189.672 217.422C189.703 218.099 189.729 218.771 189.75 219.438C189.781 220.094 189.797 220.76 189.797 221.438V235.25H186.359V213.234H190.891L202.141 231.188C202.099 230.615 202.062 229.984 202.031 229.297C202 228.609 201.984 227.792 201.984 226.844V213.234H205.438V235.25H200.797ZM225.953 227.203C225.953 229.818 225.224 231.865 223.766 233.344C222.318 234.823 220.281 235.562 217.656 235.562C215.115 235.562 213.125 234.812 211.688 233.312C210.25 231.812 209.531 229.776 209.531 227.203C209.531 224.589 210.25 222.552 211.688 221.094C213.135 219.635 215.156 218.906 217.75 218.906C220.427 218.906 222.464 219.62 223.859 221.047C225.255 222.464 225.953 224.516 225.953 227.203ZM222.188 227.203C222.188 223.443 220.734 221.562 217.828 221.562C214.807 221.562 213.297 223.443 213.297 227.203C213.297 229.047 213.667 230.458 214.406 231.438C215.146 232.417 216.219 232.906 217.625 232.906C220.667 232.906 222.188 231.005 222.188 227.203ZM249.984 220.016C249.984 218.745 249.599 217.755 248.828 217.047C248.068 216.339 246.917 215.984 245.375 215.984H242.656V224.203H245.5C246.917 224.203 248.016 223.844 248.797 223.125C249.589 222.396 249.984 221.359 249.984 220.016ZM253.797 219.984C253.797 221.359 253.484 222.568 252.859 223.609C252.245 224.651 251.344 225.464 250.156 226.047C248.979 226.63 247.583 226.922 245.969 226.922H242.656V235.25H238.875V213.234H245.812C248.375 213.234 250.344 213.823 251.719 215C253.104 216.167 253.797 217.828 253.797 219.984ZM257.219 215.609V212.531H260.797V215.609H257.219ZM257.219 235.25V219.234H260.812V235.25H257.219ZM271.438 235.562C269.24 235.562 267.542 234.844 266.344 233.406C265.156 231.969 264.562 229.943 264.562 227.328C264.562 224.641 265.172 222.568 266.391 221.109C267.609 219.641 269.333 218.906 271.562 218.906C275.198 218.906 277.281 220.568 277.812 223.891L274.219 224.188C274.104 223.302 273.807 222.641 273.328 222.203C272.859 221.755 272.281 221.531 271.594 221.531C270.417 221.531 269.552 221.995 269 222.922C268.458 223.849 268.188 225.266 268.188 227.172C268.188 229.109 268.469 230.557 269.031 231.516C269.604 232.474 270.417 232.953 271.469 232.953C273.042 232.953 273.979 231.969 274.281 230L277.781 230.375C277.219 233.833 275.104 235.562 271.438 235.562ZM285.391 235.531C284.141 235.531 283.151 235.172 282.422 234.453C281.703 233.745 281.344 232.724 281.344 231.391V221.844H278.984V219.234H281.391L282.531 215.359H284.922V219.234H288.781V221.844H284.922V230.484C284.922 232.068 285.594 232.859 286.938 232.859C287.573 232.859 288.255 232.792 288.984 232.656V235.062C287.797 235.375 286.599 235.531 285.391 235.531ZM295.594 219.234V228.188C295.594 229.812 295.849 230.979 296.359 231.688C296.87 232.396 297.667 232.75 298.75 232.75C299.917 232.75 300.844 232.307 301.531 231.422C302.219 230.526 302.562 229.281 302.562 227.688V219.234H306.156V231.547C306.156 232.797 306.203 234.031 306.297 235.25H302.875C302.76 233.667 302.703 232.635 302.703 232.156H302.641C302.016 233.385 301.292 234.26 300.469 234.781C299.656 235.302 298.609 235.562 297.328 235.562C295.557 235.562 294.224 235.036 293.328 233.984C292.443 232.922 292 231.297 292 229.109V219.234H295.594ZM318.312 221.891C317.146 221.891 316.214 222.406 315.516 223.438C314.818 224.458 314.469 225.839 314.469 227.578V235.25H310.875V223.188C310.875 221.5 310.839 220.182 310.766 219.234H314.188C314.292 220.484 314.344 221.693 314.344 222.859H314.406C314.906 221.38 315.484 220.354 316.141 219.781C316.797 219.198 317.661 218.906 318.734 218.906C319.224 218.906 319.63 218.974 319.953 219.109V222.062C319.422 221.948 318.875 221.891 318.312 221.891ZM325.5 227.922C325.552 229.557 325.911 230.818 326.578 231.703C327.255 232.578 328.177 233.016 329.344 233.016C330.135 233.016 330.839 232.818 331.453 232.422C332.078 232.026 332.641 231.359 333.141 230.422L335.969 231.781C335.354 232.771 334.74 233.521 334.125 234.031C333.51 234.542 332.792 234.922 331.969 235.172C331.156 235.432 330.188 235.562 329.062 235.562C326.719 235.562 324.911 234.828 323.641 233.359C322.37 231.88 321.734 229.807 321.734 227.141C321.734 224.453 322.401 222.411 323.734 221.016C325.068 219.609 326.885 218.906 329.188 218.906C331.469 218.906 333.214 219.656 334.422 221.156C335.63 222.646 336.234 224.755 336.234 227.484V227.922H325.5ZM329.062 221.391C328.01 221.391 327.172 221.766 326.547 222.516C325.922 223.266 325.583 224.302 325.531 225.625H332.5C332.396 224.208 332.073 223.151 331.531 222.453C330.99 221.745 330.167 221.391 329.062 221.391ZM350.188 230.641C350.188 232.182 349.661 233.385 348.609 234.25C347.568 235.125 346.104 235.562 344.219 235.562C342.26 235.562 340.823 235.255 339.906 234.641C338.99 234.026 338.385 233.036 338.094 231.672L341.188 231.188C341.333 231.906 341.641 232.422 342.109 232.734C342.589 233.047 343.271 233.203 344.156 233.203C344.958 233.203 345.604 233.031 346.094 232.688C346.594 232.344 346.844 231.786 346.844 231.016C346.844 230.547 346.734 230.161 346.516 229.859C346.297 229.547 345.969 229.281 345.531 229.062C345.104 228.833 344.266 228.552 343.016 228.219C341.87 227.917 341.016 227.578 340.453 227.203C339.901 226.818 339.474 226.339 339.172 225.766C338.87 225.182 338.719 224.469 338.719 223.625C338.719 222.135 339.182 220.979 340.109 220.156C341.047 219.323 342.411 218.906 344.203 218.906C345.859 218.906 347.13 219.214 348.016 219.828C348.911 220.432 349.474 221.365 349.703 222.625L346.578 222.953C346.464 222.339 346.208 221.906 345.812 221.656C345.427 221.406 344.901 221.281 344.234 221.281C342.766 221.281 342.031 221.927 342.031 223.219C342.031 223.635 342.12 223.979 342.297 224.25C342.484 224.521 342.75 224.755 343.094 224.953C343.448 225.141 344.245 225.411 345.484 225.766C346.849 226.151 347.818 226.542 348.391 226.938C348.964 227.323 349.406 227.812 349.719 228.406C350.031 229 350.188 229.745 350.188 230.641Z" fill="black" fill-opacity="0.25"/>
</g>
<defs>
<filter id="filter0_b" x="44.5156" y="205.172" width="309.672" height="37.8281" filterUnits="userSpaceOnUse" color-interpolation-filters="sRGB">
<feFlood flood-opacity="0" result="BackgroundImageFix"/>
<feGaussianBlur in="BackgroundImage" stdDeviation="2"/>
<feComposite in2="SourceAlpha" operator="in" result="effect1_backgroundBlur"/>
<feBlend mode="normal" in="SourceGraphic" in2="effect1_backgroundBlur" result="shape"/>
</filter>
</defs>
</svg>
